<mxfile host="app.diagrams.net" modified="2023-07-10T02:36:29.177Z" agent="Mozilla/5.0 (Windows NT 10.0; Win64; x64) AppleWebKit/537.36 (KHTML, like Gecko) Chrome/114.0.0.0 Safari/537.36" version="21.6.1" etag="6EV_T4aMKuAJCZjxNB4w" type="github">
  <diagram name="페이지-1" id="HwGxxuRwjjdgkR7C7AQz">
    <mxGraphModel>
      <root>
        <mxCell id="0" />
        <mxCell id="1" parent="0" />
      </root>
    </mxGraphModel>
  </diagram>
</mxfile>
